<svg xmlns="http://www.w3.org/2000/svg" version="1.1" xmlns:xlink="http://www.w3.org/1999/xlink" xmlns:svgjs="http://svgjs.dev/svgjs" width="1000" height="623" viewBox="0 0 1000 623"><g transform="matrix(1,0,0,1,-0.6060606060606233,0.2522267206477409)"><svg viewBox="0 0 396 247" data-background-color="#1f0f53" preserveAspectRatio="xMidYMid meet" height="623" width="1000" xmlns="http://www.w3.org/2000/svg" xmlns:xlink="http://www.w3.org/1999/xlink"><g id="tight-bounds" transform="matrix(1,0,0,1,0.2400000000000091,-0.09999999999999432)"><svg viewBox="0 0 395.52 247.2" height="247.2" width="395.52"><g><svg></svg></g><g><svg viewBox="0 0 395.52 247.2" height="247.2" width="395.52"><g transform="matrix(1,0,0,1,75.9747979030144,47.215199999999996)"><svg viewBox="0 0 243.57040419397117 152.7696" height="152.7696" width="243.57040419397117"><g><svg viewBox="0 0 243.57040419397117 152.7696" height="152.7696" width="243.57040419397117"><g><svg viewBox="0 0 243.57040419397117 152.7696" height="152.7696" width="243.57040419397117"><g><svg viewBox="0 0 243.57040419397117 152.7696" height="152.7696" width="243.57040419397117"><g id="textblocktransform"><svg viewBox="0 0 243.57040419397117 152.7696" height="152.7696" width="243.57040419397117" id="textblock"><g><svg viewBox="0 0 243.57040419397117 152.7696" height="152.7696" width="243.57040419397117"><g transform="matrix(1,0,0,1,0,0)"><svg width="243.57040419397117" viewBox="4.300000190734863 -36.25 59.38999938964844 37.25" height="152.7696" data-palette-color="#ffdb99"><path d="M7.3-1.86L7.3-1.86Q9.99-0.49 12.6-0.49L12.6-0.49Q14.18-0.49 15.54-0.96 16.89-1.44 17.88-2.39 18.87-3.34 19.43-4.75 20-6.15 20-8.01L20-8.01Q20-9.4 19.7-10.44 19.41-11.47 18.58-12.46 17.75-13.45 16.26-14.58 14.77-15.7 12.35-17.26L12.35-17.26Q8.5-19.78 6.73-22.09 4.96-24.41 4.96-26.81L4.96-26.81Q4.96-29.15 5.93-30.92 6.91-32.69 8.51-33.87 10.11-35.06 12.12-35.66 14.14-36.25 16.21-36.25L16.21-36.25Q19.95-36.25 22.9-34.55L22.9-34.55Q22.22-30.76 20.51-27.2L20.51-27.2 19.85-27.54Q20-28.47 20.08-29.31 20.17-30.15 20.17-30.9 20.17-31.64 20.09-32.26 20.02-32.89 19.9-33.45L19.9-33.45Q17.94-34.59 15.7-34.59L15.7-34.59Q14.28-34.59 13-34.17 11.72-33.74 10.74-32.91 9.77-32.08 9.18-30.87 8.59-29.66 8.59-28.1L8.59-28.1Q8.59-27 8.98-26.05 9.38-25.1 10.19-24.15 11.01-23.19 12.24-22.17 13.48-21.14 15.16-19.9L15.16-19.9Q16.16-19.17 17.04-18.57 17.92-17.97 18.68-17.43 19.43-16.89 20.08-16.38 20.73-15.87 21.29-15.28L21.29-15.28Q24-12.43 24-8.64L24-8.64Q24-6.1 23.11-4.27 22.22-2.44 20.68-1.27 19.14-0.1 17.09 0.45 15.04 1 12.74 1L12.74 1Q8.62 1 4.3-0.66L4.3-0.66Q5.05-4.59 6.69-8.01L6.69-8.01 7.35-7.64Q7.06-6.27 7.06-4.3 7.06-2.32 7.3-1.86ZM39.6-32.59L39.6-32.59 39.6-4.39Q39.6-2.42 40.4-1.51 41.21-0.61 43.45-0.2L43.45-0.2 43.23 0.39Q40.5 0.02 39.11 0 37.72-0.02 35.5 0.39L35.5 0.39 35.35 0.15Q35.84-0.56 35.84-2.44L35.84-2.44 35.84-28.1Q35.84-31.54 35.02-32.74 34.2-33.94 31.54-33.74L31.54-33.74 31.44-34.2Q35.47-35.4 39.08-35.4L39.08-35.4Q39.6-34.11 39.6-32.59ZM56.74-34.35L56.74-34.35 43.6-20.9 43.6-20.51 57.74-4.44Q60.62-1.22 63.69-0.2L63.69-0.2 63.69 0.24Q62.01 0.07 61.17 0.02 60.32-0.02 59.01 0.05 57.69 0.12 56.64 0.44L56.64 0.44 56.3 0.24Q56.35-0.29 55.69-1.1L55.69-1.1 40.35-18.99 40.35-19.51 53.49-33.06Q54.03-33.62 52.56-34.01L52.56-34.01Q51.29-34.35 49.85-34.3L49.85-34.3 49.7-34.96Q53.85-35.5 56.69-35.16L56.69-35.16Q56.91-34.84 56.74-34.35Z" opacity="1" transform="matrix(1,0,0,1,0,0)" fill="#ffdb99" class="wordmark-text-0" data-fill-palette-color="primary" id="text-0"></path></svg></g></svg></g></svg></g></svg></g></svg></g></svg></g></svg></g><path d="M258.276 41.215L258.276 0 11.076 0 11.076 247.2 258.276 247.2 258.276 205.985 244.499 205.985 244.499 233.423 24.853 233.423 24.853 13.777 244.499 13.777 244.499 41.215Z" fill="#ffdb99" stroke="transparent" data-fill-palette-color="primary"></path></svg></g><defs></defs></svg><rect width="395.52" height="247.2" fill="none" stroke="none" visibility="hidden"></rect></g></svg></g></svg>